<svg xmlns="http://www.w3.org/2000/svg" viewBox="0 0 98.97 65.98"> <defs> <style>.cls-1{fill:#1d1d1c}@media (prefers-color-scheme: dark){.cls-1{fill:#fff}}</style> </defs> <g id="s_2"> <g id="s_1-2"> <path class="cls-1" d="M51.81 66h-27C13.05 66 0 61.41 0 47.62 0 39 5.78 32.61 14.44 31.5v-.19c-6.8-2.14-11.36-7.18-11.36-14.54C3.08 2.42 15.66 0 27.21 0h24.6zM37.27 12.3H27.4c-4.57 0-9.79 1.4-9.79 6.9 0 5.31 4.66 7.17 9.13 7.17h10.53zm0 26.37h-11c-4.75 0-11.74 1-11.74 7.27 0 5.78 5.12 7.73 9.69 7.73h13z"/> <path class="cls-1" d="M37.28 0h14.53v27.4L77.44 0h19L67.1 30.66 99 66H78.65L51.81 34.66V66H37.28z"/> <path class="cls-1" d="M51.81 66h-27C13.05 66 0 61.41 0 47.62 0 39 5.78 32.61 14.44 31.5v-.19c-6.8-2.14-11.36-7.18-11.36-14.54C3.08 2.42 15.66 0 27.21 0h24.6zM37.27 12.3H27.4c-4.57 0-9.79 1.4-9.79 6.9 0 5.31 4.66 7.17 9.13 7.17h10.53zm0 26.37h-11c-4.75 0-11.74 1-11.74 7.27 0 5.78 5.12 7.73 9.69 7.73h13z"/> <path class="cls-1" d="M37.28 0h14.53v27.4L77.44 0h19L67.1 30.66 99 66H78.65L51.81 34.66V66H37.28z"/> </g> </g></svg>